<?xml version="1.0" standalone="no"?>
<!DOCTYPE svg PUBLIC "-//W3C//DTD SVG 20010904//EN"
 "http://www.w3.org/TR/2001/REC-SVG-20010904/DTD/svg10.dtd">
<svg version="1.0" xmlns="http://www.w3.org/2000/svg"
 width="578.000000pt" height="606.000000pt" viewBox="0 0 578.000000 606.000000"
 preserveAspectRatio="xMidYMid meet">
<metadata>
Created by potrace 1.16, written by Peter Selinger 2001-2019
</metadata>
<g transform="translate(0.000000,606.000000) scale(0.100000,-0.100000)"
fill="#000000" stroke="none">
<path d="M2670 5729 c-125 -12 -313 -39 -345 -48 -16 -5 -48 -12 -70 -16 -67
-11 -238 -64 -360 -112 -140 -54 -414 -192 -470 -235 -5 -5 -43 -30 -83 -57
-253 -168 -550 -458 -697 -681 -17 -25 -33 -47 -36 -50 -3 -3 -19 -27 -34 -55
-16 -27 -32 -52 -35 -55 -22 -18 -199 -369 -200 -396 -1 -5 -9 -27 -20 -49
-11 -22 -19 -46 -20 -53 0 -8 -6 -28 -14 -45 -38 -85 -101 -353 -129 -547 -14
-103 -14 -596 1 -690 42 -268 113 -541 169 -650 7 -14 13 -31 13 -38 0 -8 7
-26 14 -40 8 -15 38 -74 65 -132 70 -146 160 -298 233 -395 116 -155 175 -222
185 -212 3 4 1 7 -6 7 -7 0 -9 5 -6 10 3 6 2 10 -4 10 -5 0 -12 14 -16 30 -4
17 -11 30 -15 30 -5 0 -14 27 -21 60 -6 33 -16 63 -20 66 -12 7 -12 167 0 179
4 6 14 38 21 73 7 34 17 65 22 68 5 3 14 16 19 27 26 58 59 98 134 165 40 36
151 92 181 92 11 0 25 5 32 12 16 16 235 16 254 1 7 -6 30 -14 51 -18 20 -4
39 -11 42 -15 3 -5 24 -18 48 -29 23 -11 57 -34 75 -51 52 -47 53 -33 2 20
-24 24 -135 181 -164 230 -52 91 -136 270 -136 292 0 7 -7 26 -15 41 -8 15
-17 45 -20 65 -4 20 -13 57 -20 82 -17 54 -45 287 -45 367 0 208 61 489 146
670 19 40 34 75 34 77 0 3 22 43 49 89 55 92 163 235 238 312 39 42 169 155
208 183 6 4 26 19 45 33 19 14 42 29 50 33 8 4 33 18 55 31 42 26 61 35 165
82 139 63 198 83 350 115 144 31 491 33 613 4 43 -10 81 -15 85 -12 3 4 -4 10
-17 13 -59 15 -219 124 -220 149 -1 6 -10 19 -20 28 -24 22 -80 132 -92 183
-28 114 -29 145 -8 247 11 55 24 103 28 106 4 3 13 21 21 40 18 45 22 50 101
129 83 83 87 86 132 100 20 7 37 16 37 20 0 12 178 45 240 44 l55 -1 -43 8
c-23 5 -47 12 -52 15 -10 6 -181 29 -330 45 -101 10 -324 10 -430 -1z"/>
</g>
</svg>
